<?xml version="1.0" encoding="us-ascii" standalone="no"?><svg xmlns="http://www.w3.org/2000/svg" xmlns:xlink="http://www.w3.org/1999/xlink" contentStyleType="text/css" height="1110px" preserveAspectRatio="none" style="width:1399px;height:1110px;background:#FFFFFF;" version="1.1" viewBox="0 0 1399 1110" width="1399px" zoomAndPan="magnify"><defs/><g><text fill="#000000" font-family="Verdana" font-size="22" font-weight="bold" lengthAdjust="spacing" textLength="419" x="488.75" y="37.1182">ORION System - Activity Diagram</text><ellipse cx="683.25" cy="62.7373" fill="#FFFFFF" rx="10" ry="10" style="stroke:#000000;stroke-width:1.0;"/><rect fill="#ADD8E6" height="34.584" rx="12.5" ry="12.5" style="stroke:#000000;stroke-width:1.0;" width="167" x="599.75" y="92.7373"/><text fill="#000000" font-family="Verdana" font-size="12" lengthAdjust="spacing" textLength="147" x="609.75" y="114.8018">User Access Application</text><polygon fill="#ADD8E6" points="641.25,147.3213,725.25,147.3213,737.25,159.3213,725.25,171.3213,641.25,171.3213,629.25,159.3213,641.25,147.3213" style="stroke:#000000;stroke-width:1.0;"/><text fill="#000000" font-family="Verdana" font-size="11" lengthAdjust="spacing" textLength="84" x="641.25" y="163.696">Authenticated?</text><text fill="#000000" font-family="Verdana" font-size="11" lengthAdjust="spacing" textLength="20" x="609.25" y="157.0117">yes</text><text fill="#000000" font-family="Verdana" font-size="11" lengthAdjust="spacing" textLength="14" x="737.25" y="157.0117">no</text><rect fill="#ADD8E6" height="34.584" rx="12.5" ry="12.5" style="stroke:#000000;stroke-width:1.0;" width="124" x="441.625" y="181.3213"/><text fill="#000000" font-family="Verdana" font-size="12" lengthAdjust="spacing" textLength="104" x="451.625" y="203.3857">Load Dashboard</text><polygon fill="#ADD8E6" points="832.875,181.3213,892.875,181.3213,904.875,193.3213,892.875,205.3213,832.875,205.3213,820.875,193.3213,832.875,181.3213" style="stroke:#000000;stroke-width:1.0;"/><text fill="#000000" font-family="Verdana" font-size="11" lengthAdjust="spacing" textLength="60" x="832.875" y="197.696">New User?</text><text fill="#000000" font-family="Verdana" font-size="11" lengthAdjust="spacing" textLength="20" x="800.875" y="191.0117">yes</text><text fill="#000000" font-family="Verdana" font-size="11" lengthAdjust="spacing" textLength="14" x="904.875" y="191.0117">no</text><path d="M740.625,219.7136 L740.625,228.6133 L720.625,232.6133 L740.625,236.6133 L740.625,245.5129 A0,0 0 0 0 740.625,245.5129 L1020.625,245.5129 A0,0 0 0 0 1020.625,245.5129 L1020.625,229.7136 L1010.625,219.7136 L740.625,219.7136 A0,0 0 0 0 740.625,219.7136 " fill="#FFFFFF" style="stroke:#000000;stroke-width:1.0;"/><path d="M1010.625,219.7136 L1010.625,229.7136 L1020.625,229.7136 L1010.625,219.7136 " fill="#FFFFFF" style="stroke:#000000;stroke-width:1.0;"/><text fill="#000000" font-family="Verdana" font-size="13" lengthAdjust="spacing" textLength="259" x="746.625" y="237.7834">Username, Email, Password, Risk Profile</text><rect fill="#ADD8E6" height="34.584" rx="12.5" ry="12.5" style="stroke:#000000;stroke-width:1.0;" width="125" x="595.625" y="215.3213"/><text fill="#000000" font-family="Verdana" font-size="12" lengthAdjust="spacing" textLength="105" x="605.625" y="237.3857">Register Account</text><rect fill="#ADD8E6" height="34.584" rx="12.5" ry="12.5" style="stroke:#000000;stroke-width:1.0;" width="54" x="1040.625" y="215.3213"/><text fill="#000000" font-family="Verdana" font-size="12" lengthAdjust="spacing" textLength="34" x="1050.625" y="237.3857">Login</text><polygon fill="#ADD8E6" points="862.875,255.9053,874.875,267.9053,862.875,279.9053,850.875,267.9053,862.875,255.9053" style="stroke:#000000;stroke-width:1.0;"/><rect fill="#ADD8E6" height="34.584" rx="12.5" ry="12.5" style="stroke:#000000;stroke-width:1.0;" width="116" x="804.875" y="299.9053"/><text fill="#000000" font-family="Verdana" font-size="12" lengthAdjust="spacing" textLength="96" x="814.875" y="321.9697">Create Session</text><polygon fill="#ADD8E6" points="683.25,340.4893,695.25,352.4893,683.25,364.4893,671.25,352.4893,683.25,340.4893" style="stroke:#000000;stroke-width:1.0;"/><rect fill="#ADD8E6" height="34.584" rx="12.5" ry="12.5" style="stroke:#000000;stroke-width:1.0;" width="123" x="621.75" y="384.4893"/><text fill="#000000" font-family="Verdana" font-size="12" lengthAdjust="spacing" textLength="103" x="631.75" y="406.5537">View Dashboard</text><rect fill="#ADD8E6" height="34.584" rx="12.5" ry="12.5" style="stroke:#000000;stroke-width:1.0;" width="100" x="633.25" y="483.0732"/><text fill="#000000" font-family="Verdana" font-size="12" lengthAdjust="spacing" textLength="80" x="643.25" y="505.1377">Select Action</text><polygon fill="#ADD8E6" points="48,537.6572,121,537.6572,133,549.6572,121,561.6572,48,561.6572,36,549.6572,48,537.6572" style="stroke:#000000;stroke-width:1.0;"/><text fill="#000000" font-family="Verdana" font-size="11" lengthAdjust="spacing" textLength="124" x="88.5" y="572.7163">Portfolio Management</text><text fill="#000000" font-family="Verdana" font-size="11" lengthAdjust="spacing" textLength="73" x="48" y="554.032">Action Type?</text><rect fill="#ADD8E6" height="34.584" rx="12.5" ry="12.5" style="stroke:#000000;stroke-width:1.0;" width="154" x="7.5" y="594.2163"/><text fill="#000000" font-family="Verdana" font-size="12" lengthAdjust="spacing" textLength="134" x="17.5" y="616.2808">Create/View Portfolio</text><rect fill="#ADD8E6" height="34.584" rx="12.5" ry="12.5" style="stroke:#000000;stroke-width:1.0;" width="157" x="6" y="663.8003"/><text fill="#000000" font-family="Verdana" font-size="12" lengthAdjust="spacing" textLength="137" x="16" y="685.8647">Add/Remove Holdings</text><path d="M167.5,733.3843 L167.5,758.0833 L147.5,762.0833 L167.5,766.0833 L167.5,790.7822 A0,0 0 0 0 167.5,790.7822 L294.5,790.7822 A0,0 0 0 0 294.5,790.7822 L294.5,743.3843 L284.5,733.3843 L167.5,733.3843 A0,0 0 0 0 167.5,733.3843 " fill="#FFFFFF" style="stroke:#000000;stroke-width:1.0;"/><path d="M284.5,733.3843 L284.5,743.3843 L294.5,743.3843 L284.5,733.3843 " fill="#FFFFFF" style="stroke:#000000;stroke-width:1.0;"/><text fill="#000000" font-family="Verdana" font-size="13" lengthAdjust="spacing" textLength="106" x="173.5" y="751.4541">Asset Allocation</text><text fill="#000000" font-family="Verdana" font-size="13" lengthAdjust="spacing" textLength="85" x="173.5" y="767.2534">Health Score</text><text fill="#000000" font-family="Verdana" font-size="13" lengthAdjust="spacing" textLength="83" x="173.5" y="783.0527">Risk Analysis</text><rect fill="#ADD8E6" height="34.584" rx="12.5" ry="12.5" style="stroke:#000000;stroke-width:1.0;" width="126" x="21.5" y="744.7913"/><text fill="#000000" font-family="Verdana" font-size="12" lengthAdjust="spacing" textLength="106" x="31.5" y="766.8557">Calculate Metrics</text><polygon fill="#ADD8E6" points="522.5,537.6572,605.5,537.6572,617.5,549.6572,605.5,561.6572,522.5,561.6572,510.5,549.6572,522.5,537.6572" style="stroke:#000000;stroke-width:1.0;"/><text fill="#000000" font-family="Verdana" font-size="11" lengthAdjust="spacing" textLength="20" x="568" y="572.7163">yes</text><text fill="#000000" font-family="Verdana" font-size="11" lengthAdjust="spacing" textLength="83" x="522.5" y="554.032">Stock Analysis</text><rect fill="#ADD8E6" height="34.584" rx="12.5" ry="12.5" style="stroke:#000000;stroke-width:1.0;" width="141" x="493.5" y="594.2163"/><text fill="#000000" font-family="Verdana" font-size="12" lengthAdjust="spacing" textLength="121" x="503.5" y="616.2808">Enter Stock Symbol</text><rect fill="#ADD8E6" height="34.584" rx="12.5" ry="12.5" style="stroke:#000000;stroke-width:1.0;" width="135" x="496.5" y="663.8003"/><text fill="#000000" font-family="Verdana" font-size="12" lengthAdjust="spacing" textLength="115" x="506.5" y="685.8647">Fetch Market Data</text><rect fill="#000000" height="6" rx="2.5" ry="2.5" style="stroke:#000000;stroke-width:1.0;" width="521" x="304.5" y="733.3843"/><rect fill="#ADD8E6" height="34.584" rx="12.5" ry="12.5" style="stroke:#000000;stroke-width:1.0;" width="155" x="316.5" y="759.3843"/><text fill="#000000" font-family="Verdana" font-size="12" lengthAdjust="spacing" textLength="135" x="326.5" y="781.4487">Calculate Risk Metrics</text><rect fill="#ADD8E6" height="34.584" rx="12.5" ry="12.5" style="stroke:#000000;stroke-width:1.0;" width="145" x="499.5" y="759.3843"/><text fill="#000000" font-family="Verdana" font-size="12" lengthAdjust="spacing" textLength="125" x="509.5" y="781.4487">AI Recommendation</text><rect fill="#ADD8E6" height="34.584" rx="12.5" ry="12.5" style="stroke:#000000;stroke-width:1.0;" width="139" x="672.5" y="759.3843"/><text fill="#000000" font-family="Verdana" font-size="12" lengthAdjust="spacing" textLength="119" x="682.5" y="781.4487">Sentiment Analysis</text><rect fill="#000000" height="6" rx="2.5" ry="2.5" style="stroke:#000000;stroke-width:1.0;" width="521" x="304.5" y="813.9683"/><rect fill="#ADD8E6" height="34.584" rx="12.5" ry="12.5" style="stroke:#000000;stroke-width:1.0;" width="115" x="506.5" y="854.9683"/><text fill="#000000" font-family="Verdana" font-size="12" lengthAdjust="spacing" textLength="95" x="516.5" y="877.0327">Display Results</text><polygon fill="#ADD8E6" points="879,537.6572,974,537.6572,986,549.6572,974,561.6572,879,561.6572,867,549.6572,879,537.6572" style="stroke:#000000;stroke-width:1.0;"/><text fill="#000000" font-family="Verdana" font-size="11" lengthAdjust="spacing" textLength="20" x="930.5" y="572.7163">yes</text><text fill="#000000" font-family="Verdana" font-size="11" lengthAdjust="spacing" textLength="95" x="879" y="554.032">Compare Stocks</text><rect fill="#ADD8E6" height="34.584" rx="12.5" ry="12.5" style="stroke:#000000;stroke-width:1.0;" width="162" x="845.5" y="594.2163"/><text fill="#000000" font-family="Verdana" font-size="12" lengthAdjust="spacing" textLength="142" x="855.5" y="616.2808">Enter Multiple Symbols</text><rect fill="#ADD8E6" height="34.584" rx="12.5" ry="12.5" style="stroke:#000000;stroke-width:1.0;" width="158" x="847.5" y="663.8003"/><text fill="#000000" font-family="Verdana" font-size="12" lengthAdjust="spacing" textLength="138" x="857.5" y="685.8647">Generate Comparison</text><rect fill="#ADD8E6" height="34.584" rx="12.5" ry="12.5" style="stroke:#000000;stroke-width:1.0;" width="148" x="852.5" y="733.3843"/><text fill="#000000" font-family="Verdana" font-size="12" lengthAdjust="spacing" textLength="128" x="862.5" y="755.4487">Display Side-by-Side</text><polygon fill="#ADD8E6" points="1062,537.6572,1142,537.6572,1154,549.6572,1142,561.6572,1062,561.6572,1050,549.6572,1062,537.6572" style="stroke:#000000;stroke-width:1.0;"/><text fill="#000000" font-family="Verdana" font-size="11" lengthAdjust="spacing" textLength="20" x="1106" y="572.7163">yes</text><text fill="#000000" font-family="Verdana" font-size="11" lengthAdjust="spacing" textLength="80" x="1062" y="554.032">Update Profile</text><text fill="#000000" font-family="Verdana" font-size="11" lengthAdjust="spacing" textLength="71" x="1154" y="547.3477">Admin Panel</text><rect fill="#ADD8E6" height="34.584" rx="12.5" ry="12.5" style="stroke:#000000;stroke-width:1.0;" width="149" x="1027.5" y="594.2163"/><text fill="#000000" font-family="Verdana" font-size="12" lengthAdjust="spacing" textLength="129" x="1037.5" y="616.2808">Modify User Settings</text><rect fill="#ADD8E6" height="34.584" rx="12.5" ry="12.5" style="stroke:#000000;stroke-width:1.0;" width="138" x="1033" y="663.8003"/><text fill="#000000" font-family="Verdana" font-size="12" lengthAdjust="spacing" textLength="118" x="1043" y="685.8647">Update Risk Profile</text><rect fill="#ADD8E6" height="34.584" rx="12.5" ry="12.5" style="stroke:#000000;stroke-width:1.0;" width="144" x="1206.5" y="686.116"/><text fill="#000000" font-family="Verdana" font-size="12" lengthAdjust="spacing" textLength="124" x="1216.5" y="708.1804">View User Statistics</text><rect fill="#ADD8E6" height="34.584" rx="12.5" ry="12.5" style="stroke:#000000;stroke-width:1.0;" width="115" x="1221" y="755.7"/><text fill="#000000" font-family="Verdana" font-size="12" lengthAdjust="spacing" textLength="95" x="1231" y="777.7644">Monitor Activity</text><polygon fill="#ADD8E6" points="1250,637.4316,1307,637.4316,1319,649.4316,1307,661.4316,1250,661.4316,1238,649.4316,1250,637.4316" style="stroke:#000000;stroke-width:1.0;"/><text fill="#000000" font-family="Verdana" font-size="11" lengthAdjust="spacing" textLength="20" x="1282.5" y="672.4907">yes</text><text fill="#000000" font-family="Verdana" font-size="11" lengthAdjust="spacing" textLength="57" x="1250" y="653.8064">Is Admin?</text><polygon fill="#ADD8E6" points="1278.5,814.9683,1290.5,826.9683,1278.5,838.9683,1266.5,826.9683,1278.5,814.9683" style="stroke:#000000;stroke-width:1.0;"/><polygon fill="#ADD8E6" points="683.25,439.0732,695.25,451.0732,683.25,463.0732,671.25,451.0732,683.25,439.0732" style="stroke:#000000;stroke-width:1.0;"/><polygon fill="#ADD8E6" points="654.75,929.5522,711.75,929.5522,723.75,941.5522,711.75,953.5522,654.75,953.5522,642.75,941.5522,654.75,929.5522" style="stroke:#000000;stroke-width:1.0;"/><text fill="#000000" font-family="Verdana" font-size="11" lengthAdjust="spacing" textLength="57" x="654.75" y="945.927">Continue?</text><text fill="#000000" font-family="Verdana" font-size="11" lengthAdjust="spacing" textLength="20" x="723.75" y="939.2427">yes</text><rect fill="#ADD8E6" height="34.584" rx="12.5" ry="12.5" style="stroke:#000000;stroke-width:1.0;" width="64" x="651.25" y="973.5522"/><text fill="#000000" font-family="Verdana" font-size="12" lengthAdjust="spacing" textLength="44" x="661.25" y="995.6167">Logout</text><rect fill="#ADD8E6" height="34.584" rx="12.5" ry="12.5" style="stroke:#000000;stroke-width:1.0;" width="106" x="630.25" y="1028.1362"/><text fill="#000000" font-family="Verdana" font-size="12" lengthAdjust="spacing" textLength="86" x="640.25" y="1050.2007">Clear Session</text><ellipse cx="683.25" cy="1093.7202" fill="none" rx="11" ry="11" style="stroke:#000000;stroke-width:1.0;"/><ellipse cx="683.25" cy="1093.7202" fill="#FFFFFF" rx="6" ry="6" style="stroke:#000000;stroke-width:1.0;"/><line style="stroke:#000000;stroke-width:1.0;" x1="683.25" x2="683.25" y1="72.7373" y2="92.7373"/><polygon fill="#000000" points="679.25,82.7373,683.25,92.7373,687.25,82.7373,683.25,86.7373" style="stroke:#000000;stroke-width:1.0;"/><line style="stroke:#000000;stroke-width:1.0;" x1="820.875" x2="658.125" y1="193.3213" y2="193.3213"/><line style="stroke:#000000;stroke-width:1.0;" x1="658.125" x2="658.125" y1="193.3213" y2="215.3213"/><polygon fill="#000000" points="654.125,205.3213,658.125,215.3213,662.125,205.3213,658.125,209.3213" style="stroke:#000000;stroke-width:1.0;"/><line style="stroke:#000000;stroke-width:1.0;" x1="904.875" x2="1067.625" y1="193.3213" y2="193.3213"/><line style="stroke:#000000;stroke-width:1.0;" x1="1067.625" x2="1067.625" y1="193.3213" y2="215.3213"/><polygon fill="#000000" points="1063.625,205.3213,1067.625,215.3213,1071.625,205.3213,1067.625,209.3213" style="stroke:#000000;stroke-width:1.0;"/><line style="stroke:#000000;stroke-width:1.0;" x1="658.125" x2="658.125" y1="249.9053" y2="267.9053"/><line style="stroke:#000000;stroke-width:1.0;" x1="658.125" x2="850.875" y1="267.9053" y2="267.9053"/><polygon fill="#000000" points="840.875,263.9053,850.875,267.9053,840.875,271.9053,844.875,267.9053" style="stroke:#000000;stroke-width:1.0;"/><line style="stroke:#000000;stroke-width:1.0;" x1="1067.625" x2="1067.625" y1="249.9053" y2="267.9053"/><line style="stroke:#000000;stroke-width:1.0;" x1="1067.625" x2="874.875" y1="267.9053" y2="267.9053"/><polygon fill="#000000" points="884.875,263.9053,874.875,267.9053,884.875,271.9053,880.875,267.9053" style="stroke:#000000;stroke-width:1.0;"/><line style="stroke:#000000;stroke-width:1.0;" x1="862.875" x2="862.875" y1="279.9053" y2="299.9053"/><polygon fill="#000000" points="858.875,289.9053,862.875,299.9053,866.875,289.9053,862.875,293.9053" style="stroke:#000000;stroke-width:1.0;"/><line style="stroke:#000000;stroke-width:1.0;" x1="629.25" x2="503.625" y1="159.3213" y2="159.3213"/><line style="stroke:#000000;stroke-width:1.0;" x1="503.625" x2="503.625" y1="159.3213" y2="181.3213"/><polygon fill="#000000" points="499.625,171.3213,503.625,181.3213,507.625,171.3213,503.625,175.3213" style="stroke:#000000;stroke-width:1.0;"/><line style="stroke:#000000;stroke-width:1.0;" x1="737.25" x2="862.875" y1="159.3213" y2="159.3213"/><line style="stroke:#000000;stroke-width:1.0;" x1="862.875" x2="862.875" y1="159.3213" y2="181.3213"/><polygon fill="#000000" points="858.875,171.3213,862.875,181.3213,866.875,171.3213,862.875,175.3213" style="stroke:#000000;stroke-width:1.0;"/><line style="stroke:#000000;stroke-width:1.0;" x1="503.625" x2="503.625" y1="215.9053" y2="352.4893"/><line style="stroke:#000000;stroke-width:1.0;" x1="503.625" x2="671.25" y1="352.4893" y2="352.4893"/><polygon fill="#000000" points="661.25,348.4893,671.25,352.4893,661.25,356.4893,665.25,352.4893" style="stroke:#000000;stroke-width:1.0;"/><line style="stroke:#000000;stroke-width:1.0;" x1="862.875" x2="862.875" y1="334.4893" y2="352.4893"/><line style="stroke:#000000;stroke-width:1.0;" x1="862.875" x2="695.25" y1="352.4893" y2="352.4893"/><polygon fill="#000000" points="705.25,348.4893,695.25,352.4893,705.25,356.4893,701.25,352.4893" style="stroke:#000000;stroke-width:1.0;"/><line style="stroke:#000000;stroke-width:1.0;" x1="683.25" x2="683.25" y1="127.3213" y2="147.3213"/><polygon fill="#000000" points="679.25,137.3213,683.25,147.3213,687.25,137.3213,683.25,141.3213" style="stroke:#000000;stroke-width:1.0;"/><line style="stroke:#000000;stroke-width:1.0;" x1="683.25" x2="683.25" y1="364.4893" y2="384.4893"/><polygon fill="#000000" points="679.25,374.4893,683.25,384.4893,687.25,374.4893,683.25,378.4893" style="stroke:#000000;stroke-width:1.0;"/><line style="stroke:#000000;stroke-width:1.0;" x1="84.5" x2="84.5" y1="628.8003" y2="663.8003"/><polygon fill="#000000" points="80.5,653.8003,84.5,663.8003,88.5,653.8003,84.5,657.8003" style="stroke:#000000;stroke-width:1.0;"/><line style="stroke:#000000;stroke-width:1.0;" x1="84.5" x2="84.5" y1="698.3843" y2="744.7913"/><polygon fill="#000000" points="80.5,734.7913,84.5,744.7913,88.5,734.7913,84.5,738.7913" style="stroke:#000000;stroke-width:1.0;"/><line style="stroke:#000000;stroke-width:1.0;" x1="564" x2="564" y1="628.8003" y2="663.8003"/><polygon fill="#000000" points="560,653.8003,564,663.8003,568,653.8003,564,657.8003" style="stroke:#000000;stroke-width:1.0;"/><line style="stroke:#000000;stroke-width:1.0;" x1="394" x2="394" y1="739.3843" y2="759.3843"/><polygon fill="#000000" points="390,749.3843,394,759.3843,398,749.3843,394,753.3843" style="stroke:#000000;stroke-width:1.0;"/><line style="stroke:#000000;stroke-width:1.0;" x1="572" x2="572" y1="739.3843" y2="759.3843"/><polygon fill="#000000" points="568,749.3843,572,759.3843,576,749.3843,572,753.3843" style="stroke:#000000;stroke-width:1.0;"/><line style="stroke:#000000;stroke-width:1.0;" x1="742" x2="742" y1="739.3843" y2="759.3843"/><polygon fill="#000000" points="738,749.3843,742,759.3843,746,749.3843,742,753.3843" style="stroke:#000000;stroke-width:1.0;"/><line style="stroke:#000000;stroke-width:1.0;" x1="394" x2="394" y1="793.9683" y2="813.9683"/><polygon fill="#000000" points="390,803.9683,394,813.9683,398,803.9683,394,807.9683" style="stroke:#000000;stroke-width:1.0;"/><line style="stroke:#000000;stroke-width:1.0;" x1="572" x2="572" y1="793.9683" y2="813.9683"/><polygon fill="#000000" points="568,803.9683,572,813.9683,576,803.9683,572,807.9683" style="stroke:#000000;stroke-width:1.0;"/><line style="stroke:#000000;stroke-width:1.0;" x1="742" x2="742" y1="793.9683" y2="813.9683"/><polygon fill="#000000" points="738,803.9683,742,813.9683,746,803.9683,742,807.9683" style="stroke:#000000;stroke-width:1.0;"/><line style="stroke:#000000;stroke-width:1.0;" x1="564" x2="564" y1="698.3843" y2="733.3843"/><polygon fill="#000000" points="560,723.3843,564,733.3843,568,723.3843,564,727.3843" style="stroke:#000000;stroke-width:1.0;"/><line style="stroke:#000000;stroke-width:1.0;" x1="564" x2="564" y1="819.9683" y2="854.9683"/><polygon fill="#000000" points="560,844.9683,564,854.9683,568,844.9683,564,848.9683" style="stroke:#000000;stroke-width:1.0;"/><line style="stroke:#000000;stroke-width:1.0;" x1="926.5" x2="926.5" y1="628.8003" y2="663.8003"/><polygon fill="#000000" points="922.5,653.8003,926.5,663.8003,930.5,653.8003,926.5,657.8003" style="stroke:#000000;stroke-width:1.0;"/><line style="stroke:#000000;stroke-width:1.0;" x1="926.5" x2="926.5" y1="698.3843" y2="733.3843"/><polygon fill="#000000" points="922.5,723.3843,926.5,733.3843,930.5,723.3843,926.5,727.3843" style="stroke:#000000;stroke-width:1.0;"/><line style="stroke:#000000;stroke-width:1.0;" x1="1102" x2="1102" y1="628.8003" y2="663.8003"/><polygon fill="#000000" points="1098,653.8003,1102,663.8003,1106,653.8003,1102,657.8003" style="stroke:#000000;stroke-width:1.0;"/><line style="stroke:#000000;stroke-width:1.0;" x1="1278.5" x2="1278.5" y1="720.7" y2="755.7"/><polygon fill="#000000" points="1274.5,745.7,1278.5,755.7,1282.5,745.7,1278.5,749.7" style="stroke:#000000;stroke-width:1.0;"/><line style="stroke:#000000;stroke-width:1.0;" x1="1278.5" x2="1278.5" y1="661.4316" y2="686.116"/><polygon fill="#000000" points="1274.5,676.116,1278.5,686.116,1282.5,676.116,1278.5,680.116" style="stroke:#000000;stroke-width:1.0;"/><line style="stroke:#000000;stroke-width:1.0;" x1="1319" x2="1360.5" y1="649.4316" y2="649.4316"/><polygon fill="#000000" points="1356.5,728.2,1360.5,738.2,1364.5,728.2,1360.5,732.2" style="stroke:#000000;stroke-width:1.0;"/><line style="stroke:#000000;stroke-width:1.0;" x1="1360.5" x2="1360.5" y1="649.4316" y2="826.9683"/><line style="stroke:#000000;stroke-width:1.0;" x1="1360.5" x2="1290.5" y1="826.9683" y2="826.9683"/><polygon fill="#000000" points="1300.5,822.9683,1290.5,826.9683,1300.5,830.9683,1296.5,826.9683" style="stroke:#000000;stroke-width:1.0;"/><line style="stroke:#000000;stroke-width:1.0;" x1="1278.5" x2="1278.5" y1="790.2839" y2="814.9683"/><polygon fill="#000000" points="1274.5,804.9683,1278.5,814.9683,1282.5,804.9683,1278.5,808.9683" style="stroke:#000000;stroke-width:1.0;"/><line style="stroke:#000000;stroke-width:1.0;" x1="84.5" x2="84.5" y1="561.6572" y2="594.2163"/><polygon fill="#000000" points="80.5,584.2163,84.5,594.2163,88.5,584.2163,84.5,588.2163" style="stroke:#000000;stroke-width:1.0;"/><line style="stroke:#000000;stroke-width:1.0;" x1="84.5" x2="84.5" y1="779.3752" y2="909.5522"/><polygon fill="#000000" points="80.5,899.5522,84.5,909.5522,88.5,899.5522,84.5,903.5522" style="stroke:#000000;stroke-width:1.0;"/><line style="stroke:#000000;stroke-width:1.0;" x1="564" x2="564" y1="561.6572" y2="594.2163"/><polygon fill="#000000" points="560,584.2163,564,594.2163,568,584.2163,564,588.2163" style="stroke:#000000;stroke-width:1.0;"/><line style="stroke:#000000;stroke-width:1.0;" x1="564" x2="564" y1="889.5522" y2="909.5522"/><polygon fill="#000000" points="560,899.5522,564,909.5522,568,899.5522,564,903.5522" style="stroke:#000000;stroke-width:1.0;"/><line style="stroke:#000000;stroke-width:1.0;" x1="926.5" x2="926.5" y1="561.6572" y2="594.2163"/><polygon fill="#000000" points="922.5,584.2163,926.5,594.2163,930.5,584.2163,926.5,588.2163" style="stroke:#000000;stroke-width:1.0;"/><line style="stroke:#000000;stroke-width:1.0;" x1="926.5" x2="926.5" y1="767.9683" y2="909.5522"/><polygon fill="#000000" points="922.5,899.5522,926.5,909.5522,930.5,899.5522,926.5,903.5522" style="stroke:#000000;stroke-width:1.0;"/><line style="stroke:#000000;stroke-width:1.0;" x1="1102" x2="1102" y1="561.6572" y2="594.2163"/><polygon fill="#000000" points="1098,584.2163,1102,594.2163,1106,584.2163,1102,588.2163" style="stroke:#000000;stroke-width:1.0;"/><line style="stroke:#000000;stroke-width:1.0;" x1="1102" x2="1102" y1="698.3843" y2="909.5522"/><polygon fill="#000000" points="1098,899.5522,1102,909.5522,1106,899.5522,1102,903.5522" style="stroke:#000000;stroke-width:1.0;"/><line style="stroke:#000000;stroke-width:1.0;" x1="133" x2="510.5" y1="549.6572" y2="549.6572"/><polygon fill="#000000" points="500.5,545.6572,510.5,549.6572,500.5,553.6572,504.5,549.6572" style="stroke:#000000;stroke-width:1.0;"/><line style="stroke:#000000;stroke-width:1.0;" x1="617.5" x2="867" y1="549.6572" y2="549.6572"/><polygon fill="#000000" points="857,545.6572,867,549.6572,857,553.6572,861,549.6572" style="stroke:#000000;stroke-width:1.0;"/><line style="stroke:#000000;stroke-width:1.0;" x1="986" x2="1050" y1="549.6572" y2="549.6572"/><polygon fill="#000000" points="1040,545.6572,1050,549.6572,1040,553.6572,1044,549.6572" style="stroke:#000000;stroke-width:1.0;"/><line style="stroke:#000000;stroke-width:1.0;" x1="683.25" x2="683.25" y1="517.6572" y2="522.6572"/><line style="stroke:#000000;stroke-width:1.0;" x1="683.25" x2="84.5" y1="522.6572" y2="522.6572"/><line style="stroke:#000000;stroke-width:1.0;" x1="84.5" x2="84.5" y1="522.6572" y2="537.6572"/><polygon fill="#000000" points="80.5,527.6572,84.5,537.6572,88.5,527.6572,84.5,531.6572" style="stroke:#000000;stroke-width:1.0;"/><line style="stroke:#000000;stroke-width:1.0;" x1="1154" x2="1278.5" y1="549.6572" y2="549.6572"/><line style="stroke:#000000;stroke-width:1.0;" x1="1278.5" x2="1278.5" y1="549.6572" y2="637.4316"/><polygon fill="#000000" points="1274.5,627.4316,1278.5,637.4316,1282.5,627.4316,1278.5,631.4316" style="stroke:#000000;stroke-width:1.0;"/><line style="stroke:#000000;stroke-width:1.0;" x1="1278.5" x2="1278.5" y1="838.9683" y2="909.5522"/><polygon fill="#000000" points="1274.5,899.5522,1278.5,909.5522,1282.5,899.5522,1278.5,903.5522" style="stroke:#000000;stroke-width:1.0;"/><line style="stroke:#000000;stroke-width:1.0;" x1="84.5" x2="1278.5" y1="909.5522" y2="909.5522"/><line style="stroke:#000000;stroke-width:1.0;" x1="683.25" x2="683.25" y1="463.0732" y2="483.0732"/><polygon fill="#000000" points="679.25,473.0732,683.25,483.0732,687.25,473.0732,683.25,477.0732" style="stroke:#000000;stroke-width:1.0;"/><line style="stroke:#000000;stroke-width:1.0;" x1="723.75" x2="1378.5" y1="941.5522" y2="941.5522"/><polygon fill="#000000" points="1374.5,713.408,1378.5,703.408,1382.5,713.408,1378.5,709.408" style="stroke:#000000;stroke-width:1.0;"/><line style="stroke:#000000;stroke-width:1.0;" x1="1378.5" x2="1378.5" y1="451.0732" y2="941.5522"/><line style="stroke:#000000;stroke-width:1.0;" x1="1378.5" x2="695.25" y1="451.0732" y2="451.0732"/><polygon fill="#000000" points="705.25,447.0732,695.25,451.0732,705.25,455.0732,701.25,451.0732" style="stroke:#000000;stroke-width:1.0;"/><line style="stroke:#000000;stroke-width:1.0;" x1="683.25" x2="683.25" y1="909.5522" y2="929.5522"/><polygon fill="#000000" points="679.25,919.5522,683.25,929.5522,687.25,919.5522,683.25,923.5522" style="stroke:#000000;stroke-width:1.0;"/><line style="stroke:#000000;stroke-width:1.0;" x1="683.25" x2="683.25" y1="419.0732" y2="439.0732"/><polygon fill="#000000" points="679.25,429.0732,683.25,439.0732,687.25,429.0732,683.25,433.0732" style="stroke:#000000;stroke-width:1.0;"/><line style="stroke:#000000;stroke-width:1.0;" x1="683.25" x2="683.25" y1="953.5522" y2="973.5522"/><polygon fill="#000000" points="679.25,963.5522,683.25,973.5522,687.25,963.5522,683.25,967.5522" style="stroke:#000000;stroke-width:1.0;"/><line style="stroke:#000000;stroke-width:1.0;" x1="683.25" x2="683.25" y1="1008.1362" y2="1028.1362"/><polygon fill="#000000" points="679.25,1018.1362,683.25,1028.1362,687.25,1018.1362,683.25,1022.1362" style="stroke:#000000;stroke-width:1.0;"/><line style="stroke:#000000;stroke-width:1.0;" x1="683.25" x2="683.25" y1="1062.7202" y2="1082.7202"/><polygon fill="#000000" points="679.25,1072.7202,683.25,1082.7202,687.25,1072.7202,683.25,1076.7202" style="stroke:#000000;stroke-width:1.0;"/><!--SRC=[VLHDRzim3BthLt2t5cZHUt8OtAHR2pHj4Q-xApRZ494bGs9Q6CF- -oZByyUQrPV4eaY-z-Z7Btp06g4ncgmAHxADzhe6NJ2z4RVmIu4yjxeuLjwTRBbondbufEh0j-Q4AUfyYJv5RerSLR-LOcA3yBnzU7w2l0sCDLn3zhVicdGbVPGAh3shnMj0Bz42Gu2iQGmLcidPfLAqXuli92WjnqCilrv2V8EB5iDbrt_nw7G9QnqEEwTzkLHe0iA5TIaSAppXEyGU7vEx0bkiI21s48GbBuUGTOpW8zr5Ly3g6g_WhjPahk15X_0kvAzWI-48BzxjoIHDvX1wb1NPL1bjIVk4VULHM44kp3l2AQGMFqaWJpWfZutSJ4av6YouazFr9GUgwH1-j0qER5-Svxqpv62ZhQvaufOdo1A6cwxbS7NKO96LvSqMQ_U6SEzCIROAa-XAc-9a8eaDigSYd5DlE8fF5W8AUcDS6lCiU8_Qy07omdcS1JgDCwjD6oWC4T6hQpCS3F97CN9snPXqVlXtDau-tSpRUkVCXDmtvE8WglcZ85vhrcDix_nn1d2YH8VrWnmn0tGLhJRBonvWYuMhPIob7aVwMKeU_H37E91RpYIPWLkiAOZ3M-aIJeOdLsTYhLmjxiSanQTYRQGADUBlfDVqQ_YE5dsK85MZC6Kp0CcfnEjTUnr__uFcjIbZcTvKvz5id9YbxOmf3cB-vyliIqpDUQQPMAQioOgRBPgnUCJm8DieniwlZQv7Pve4W6LsWMSJxr5QOkU7xJURLBy7nd-zqU7z873ZK6JGzXIzJA47eE8kSITPKukLGUt7xH7ODUeF]--></g></svg>