<?xml version="1.0" encoding="us-ascii" standalone="no"?><svg xmlns="http://www.w3.org/2000/svg" xmlns:xlink="http://www.w3.org/1999/xlink" contentStyleType="text/css" height="1576px" preserveAspectRatio="none" style="width:1301px;height:1576px;background:#FFFFFF;" version="1.1" viewBox="0 0 1301 1576" width="1301px" zoomAndPan="magnify"><defs/><g><text fill="#000000" font-family="Verdana" font-size="22" font-weight="bold" lengthAdjust="spacing" textLength="438" x="427" y="37.1182">ORION System - Use Case Diagram</text><!--cluster ORION System--><g id="cluster_ORION System"><rect fill="#FFFFFF" height="948" rx="2.5" ry="2.5" style="stroke:#000000;stroke-width:1.0;" width="885" x="195" y="287.4473"/><text fill="#000000" font-family="Verdana" font-size="14" font-weight="bold" lengthAdjust="spacing" textLength="115" x="580" y="303.5225">ORION System</text></g><g id="elem_UC1"><ellipse cx="312.5198" cy="636.6513" fill="#FFFFFF" rx="81.5198" ry="18.704" style="stroke:#000000;stroke-width:1.0;"/><text fill="#000000" font-family="Verdana" font-size="14" lengthAdjust="spacing" textLength="120" x="252.5198" y="640.2191">Register Account</text></g><g id="elem_UC2"><ellipse cx="312.3553" cy="705.4785" fill="#FFFFFF" rx="38.3553" ry="15.0312" style="stroke:#000000;stroke-width:1.0;"/><text fill="#000000" font-family="Verdana" font-size="14" lengthAdjust="spacing" textLength="38" x="293.3553" y="709.0463">Login</text></g><g id="elem_UC3"><ellipse cx="312.3532" cy="770.4819" fill="#FFFFFF" rx="46.8532" ry="15.0346" style="stroke:#000000;stroke-width:1.0;"/><text fill="#000000" font-family="Verdana" font-size="14" lengthAdjust="spacing" textLength="50" x="286.6099" y="774.2538">Logout</text></g><g id="elem_UC4"><ellipse cx="312.6785" cy="837.283" fill="#FFFFFF" rx="72.1785" ry="16.8357" style="stroke:#000000;stroke-width:1.0;"/><text fill="#000000" font-family="Verdana" font-size="14" lengthAdjust="spacing" textLength="97" x="262.6644" y="841.2389">Update Profile</text></g><g id="elem_UC5"><ellipse cx="312.4568" cy="907.2387" fill="#FFFFFF" rx="76.9568" ry="17.7914" style="stroke:#000000;stroke-width:1.0;"/><text fill="#000000" font-family="Verdana" font-size="14" lengthAdjust="spacing" textLength="109" x="257.9568" y="910.8065">Create Portfolio</text></g><g id="elem_UC6"><ellipse cx="312.4195" cy="1052.6312" fill="#FFFFFF" rx="71.4195" ry="16.6839" style="stroke:#000000;stroke-width:1.0;"/><text fill="#000000" font-family="Verdana" font-size="14" lengthAdjust="spacing" textLength="95" x="262.9897" y="1056.6845">View Portfolio</text></g><g id="elem_UC7"><ellipse cx="312.6411" cy="1121.5755" fill="#FFFFFF" rx="76.1411" ry="17.6282" style="stroke:#000000;stroke-width:1.0;"/><text fill="#000000" font-family="Verdana" font-size="14" lengthAdjust="spacing" textLength="107" x="259.1411" y="1125.1434">Delete Portfolio</text></g><g id="elem_UC8"><ellipse cx="312.7228" cy="980.6919" fill="#FFFFFF" rx="89.2228" ry="20.2446" style="stroke:#000000;stroke-width:1.0;"/><text fill="#000000" font-family="Verdana" font-size="14" lengthAdjust="spacing" textLength="138" x="243.7228" y="984.2597">Add Stock Holdings</text></g><g id="elem_UC9"><ellipse cx="312.6426" cy="1196.6758" fill="#FFFFFF" rx="101.6426" ry="22.7285" style="stroke:#000000;stroke-width:1.0;"/><text fill="#000000" font-family="Verdana" font-size="14" lengthAdjust="spacing" textLength="166" x="229.6426" y="1200.2437">Remove Stock Holdings</text></g><g id="elem_UC10"><ellipse cx="635.0572" cy="956.2587" fill="#FFFFFF" rx="87.0572" ry="19.8114" style="stroke:#000000;stroke-width:1.0;"/><text fill="#000000" font-family="Verdana" font-size="14" lengthAdjust="spacing" textLength="133" x="568.5572" y="959.8266">Analyze Stock Risk</text></g><g id="elem_UC11"><ellipse cx="959.904" cy="794.6281" fill="#FFFFFF" rx="103.904" ry="23.1808" style="stroke:#000000;stroke-width:1.0;"/><text fill="#000000" font-family="Verdana" font-size="14" lengthAdjust="spacing" textLength="171" x="874.404" y="798.196">Get AI Recommendation</text></g><g id="elem_UC12"><ellipse cx="959.904" cy="937.6281" fill="#FFFFFF" rx="103.904" ry="23.1808" style="stroke:#000000;stroke-width:1.0;"/><text fill="#000000" font-family="Verdana" font-size="14" lengthAdjust="spacing" textLength="171" x="874.404" y="941.196">View Sentiment Analysis</text></g><g id="elem_UC13"><ellipse cx="312.3464" cy="564.3166" fill="#FFFFFF" rx="79.8464" ry="18.3693" style="stroke:#000000;stroke-width:1.0;"/><text fill="#000000" font-family="Verdana" font-size="14" lengthAdjust="spacing" textLength="116" x="254.3464" y="567.8844">Compare Stocks</text></g><g id="elem_UC14"><ellipse cx="635.0473" cy="1119.6568" fill="#FFFFFF" rx="94.0473" ry="21.2095" style="stroke:#000000;stroke-width:1.0;"/><text fill="#000000" font-family="Verdana" font-size="14" lengthAdjust="spacing" textLength="149" x="560.5473" y="1123.2246">View Asset Allocation</text></g><g id="elem_UC15"><ellipse cx="635.1561" cy="1197.2785" fill="#FFFFFF" rx="97.1561" ry="21.8312" style="stroke:#000000;stroke-width:1.0;"/><text fill="#000000" font-family="Verdana" font-size="14" lengthAdjust="spacing" textLength="156" x="557.1561" y="1200.8464">Calculate Health Score</text></g><g id="elem_UC16"><ellipse cx="634.9888" cy="1043.3451" fill="#FFFFFF" rx="87.4888" ry="19.8978" style="stroke:#000000;stroke-width:1.0;"/><text fill="#000000" font-family="Verdana" font-size="14" lengthAdjust="spacing" textLength="134" x="567.9888" y="1046.9129">View Diversification</text></g><g id="elem_UC17"><ellipse cx="312.658" cy="490.2789" fill="#FFFFFF" rx="89.658" ry="20.3316" style="stroke:#000000;stroke-width:1.0;"/><text fill="#000000" font-family="Verdana" font-size="14" lengthAdjust="spacing" textLength="139" x="243.158" y="493.8468">View User Statistics</text></g><g id="elem_UC18"><ellipse cx="312.6055" cy="344.5684" fill="#FFFFFF" rx="93.6055" ry="21.1211" style="stroke:#000000;stroke-width:1.0;"/><text fill="#000000" font-family="Verdana" font-size="14" lengthAdjust="spacing" textLength="148" x="238.6055" y="348.1363">Monitor Activity Logs</text></g><g id="elem_UC19"><ellipse cx="312.5625" cy="417.3598" fill="#FFFFFF" rx="72.5625" ry="16.9125" style="stroke:#000000;stroke-width:1.0;"/><text fill="#000000" font-family="Verdana" font-size="14" lengthAdjust="spacing" textLength="98" x="262.2528" y="421.2664">Manage Users</text></g><!--entity User--><g id="elem_User"><ellipse cx="132" cy="950.4473" fill="#FFFFFF" rx="8" ry="8" style="stroke:#000000;stroke-width:1.0;"/><path d="M132,958.4473 L132,985.4473 M119,966.4473 L145,966.4473 M132,985.4473 L119,1000.4473 M132,985.4473 L145,1000.4473 " fill="none" style="stroke:#000000;stroke-width:1.0;"/><text fill="#000000" font-family="Verdana" font-size="14" lengthAdjust="spacing" textLength="32" x="116" y="1016.5225">User</text></g><!--entity Admin--><g id="elem_Admin"><ellipse cx="33" cy="424.4473" fill="#FFFFFF" rx="8" ry="8" style="stroke:#000000;stroke-width:1.0;"/><path d="M33,432.4473 L33,459.4473 M20,440.4473 L46,440.4473 M33,459.4473 L20,474.4473 M33,459.4473 L46,474.4473 " fill="none" style="stroke:#000000;stroke-width:1.0;"/><text fill="#000000" font-family="Verdana" font-size="14" lengthAdjust="spacing" textLength="44" x="11" y="490.5225">Admin</text></g><!--entity API--><g id="elem_API"><ellipse cx="1234" cy="764.4473" fill="#FFFFFF" rx="8" ry="8" style="stroke:#000000;stroke-width:1.0;"/><path d="M1234,772.4473 L1234,799.4473 M1221,780.4473 L1247,780.4473 M1234,799.4473 L1221,814.4473 M1234,799.4473 L1247,814.4473 " fill="none" style="stroke:#000000;stroke-width:1.0;"/><text fill="#000000" font-family="Verdana" font-size="14" lengthAdjust="spacing" textLength="120" x="1174" y="830.5225">Stock Market API</text></g><!--link User to UC1--><g id="link_User_UC1"><path d="M134.81,941.3273 C139.02,867.4973 151.92,711.5373 187,672.4473 C200.07,657.8773 212.8646,650.6837 231.6846,645.3837 " fill="none" id="User-to-UC1" style="stroke:#000000;stroke-width:1.0;"/><polygon fill="#000000" points="237.46,643.7573,227.7127,642.3467,232.6472,645.1127,229.8813,650.0472,237.46,643.7573" style="stroke:#000000;stroke-width:1.0;"/></g><!--link User to UC2--><g id="link_User_UC2"><path d="M136.74,941.3673 C143.38,880.2873 159.2,766.1773 187,737.4473 C209.42,714.2773 240.2137,707.4724 267.9937,705.5924 " fill="none" id="User-to-UC2" style="stroke:#000000;stroke-width:1.0;"/><polygon fill="#000000" points="273.98,705.1873,264.7305,701.8041,268.9914,705.5249,265.2706,709.7859,273.98,705.1873" style="stroke:#000000;stroke-width:1.0;"/></g><!--link User to UC3--><g id="link_User_UC3"><path d="M134.18,941.0873 C137.56,900.6873 149.1,838.7473 187,802.4473 C207.79,782.5373 233.2795,775.255 259.3695,772.245 " fill="none" id="User-to-UC3" style="stroke:#000000;stroke-width:1.0;"/><polygon fill="#000000" points="265.33,771.5573,255.9309,768.6151,260.3629,772.1304,256.8477,776.5624,265.33,771.5573" style="stroke:#000000;stroke-width:1.0;"/></g><!--link User to UC4--><g id="link_User_UC4"><path d="M143.49,941.2373 C151.69,917.8073 165.4,889.2273 187,871.4473 C203.87,857.5673 220.0974,850.6928 240.9774,845.8128 " fill="none" id="User-to-UC4" style="stroke:#000000;stroke-width:1.0;"/><polygon fill="#000000" points="246.82,844.4473,237.1458,842.6005,241.9512,845.5852,238.9665,850.3906,246.82,844.4473" style="stroke:#000000;stroke-width:1.0;"/></g><!--link User to UC5--><g id="link_User_UC5"><path d="M148.19,967.6373 C158.56,959.4473 172.92,949.1373 187,942.4473 C207.99,932.4773 226.5491,926.3418 248.1291,920.7918 " fill="none" id="User-to-UC5" style="stroke:#000000;stroke-width:1.0;"/><polygon fill="#000000" points="253.94,919.2973,244.2273,917.6651,249.0976,920.5427,246.22,925.4129,253.94,919.2973" style="stroke:#000000;stroke-width:1.0;"/></g><!--link User to UC6--><g id="link_User_UC6"><path d="M148.24,992.8973 C158.63,1000.8673 173,1010.8973 187,1017.4473 C209.47,1027.9573 229.9191,1034.4621 252.5191,1040.1121 " fill="none" id="User-to-UC6" style="stroke:#000000;stroke-width:1.0;"/><polygon fill="#000000" points="258.34,1041.5673,250.5789,1035.5039,253.4893,1040.3546,248.6386,1043.2651,258.34,1041.5673" style="stroke:#000000;stroke-width:1.0;"/></g><!--link User to UC7--><g id="link_User_UC7"><path d="M144.18,1019.5773 C152.53,1042.1473 166.16,1069.3573 187,1086.4473 C203.41,1099.8973 218.851,1106.7347 239.141,1111.8347 " fill="none" id="User-to-UC7" style="stroke:#000000;stroke-width:1.0;"/><polygon fill="#000000" points="244.96,1113.2973,237.2066,1107.224,240.1108,1112.0784,235.2564,1114.9827,244.96,1113.2973" style="stroke:#000000;stroke-width:1.0;"/></g><!--link User to UC8--><g id="link_User_UC8"><path d="M148.22,980.4473 C165.25,980.4473 188.26,980.4473 217.14,980.4473 " fill="none" id="User-to-UC8" style="stroke:#000000;stroke-width:1.0;"/><polygon fill="#000000" points="223.14,980.4473,214.14,976.4473,218.14,980.4473,214.14,984.4473,223.14,980.4473" style="stroke:#000000;stroke-width:1.0;"/></g><!--link User to UC9--><g id="link_User_UC9"><path d="M134.82,1019.6673 C138.74,1059.2773 150.74,1119.7073 187,1156.4473 C198.96,1168.5673 208.964,1174.9593 225.094,1180.8493 " fill="none" id="User-to-UC9" style="stroke:#000000;stroke-width:1.0;"/><polygon fill="#000000" points="230.73,1182.9073,223.648,1176.0629,226.0333,1181.1923,220.904,1183.5776,230.73,1182.9073" style="stroke:#000000;stroke-width:1.0;"/></g><!--link User to UC10--><g id="link_User_UC10"><path d="M135.41,1019.6073 C140.3,1084.4273 153.88,1209.5873 187,1236.4473 C265.36,1299.9973 319.53,1271.8673 414,1236.4473 C465.91,1216.9873 480.16,1202.3873 508,1154.4473 C541.92,1096.0273 497.19,1059.2773 538,1005.4473 C549.19,990.6873 560.6322,982.5098 577.1422,974.9698 " fill="none" id="User-to-UC10" style="stroke:#000000;stroke-width:1.0;"/><polygon fill="#000000" points="582.6,972.4773,572.7517,972.5776,578.0519,974.5544,576.075,979.8546,582.6,972.4773" style="stroke:#000000;stroke-width:1.0;"/></g><!--link User to UC11--><g id="link_User_UC11"><path d="M133.12,941.2373 C133.92,803.6273 140.14,348.7073 187,305.4473 C454.24,58.7373 858.6487,641.0206 940.9387,766.4506 " fill="none" id="User-to-UC11" style="stroke:#000000;stroke-width:1.0;"/><polygon fill="#000000" points="944.23,771.4673,942.6376,761.748,941.4873,767.2867,935.9486,766.1364,944.23,771.4673" style="stroke:#000000;stroke-width:1.0;"/></g><!--link User to UC12--><g id="link_User_UC12"><path d="M134.3,1019.6773 C138.4,1131.3273 152.88,1444.6673 187,1474.4473 C295.67,1569.3073 387.96,1506.4373 508,1426.4473 C616.64,1354.0573 652.89,1340.2873 732,1236.4473 C811.29,1132.3773 757.52,1055.5873 856,969.4473 C863.82,962.6073 867.5875,959.6195 877.3175,955.3895 " fill="none" id="User-to-UC12" style="stroke:#000000;stroke-width:1.0;"/><polygon fill="#000000" points="882.82,952.9973,872.9715,952.9172,878.2346,954.9908,876.161,960.2539,882.82,952.9973" style="stroke:#000000;stroke-width:1.0;"/></g><!--link User to UC13--><g id="link_User_UC13"><path d="M133.31,941.3673 C134.79,854.7973 142.99,650.5873 187,600.4473 C200.06,585.5673 213.0682,578.2707 232.1082,572.9907 " fill="none" id="User-to-UC13" style="stroke:#000000;stroke-width:1.0;"/><polygon fill="#000000" points="237.89,571.3873,228.1484,569.9378,233.0718,572.7234,230.2862,577.6469,237.89,571.3873" style="stroke:#000000;stroke-width:1.0;"/></g><!--link User to UC14--><g id="link_User_UC14"><path d="M132.64,1019.6273 C132.78,1105.1973 138.44,1304.5273 187,1346.4473 C295.96,1440.5073 418.37,1416.0773 508,1303.4473 C549.25,1251.6173 495.41,1208.1873 538,1157.4473 C546.3,1147.5673 552.0654,1142.7268 563.9154,1137.2968 " fill="none" id="User-to-UC14" style="stroke:#000000;stroke-width:1.0;"/><polygon fill="#000000" points="569.37,1134.7973,559.5218,1134.9101,564.8245,1136.8802,562.8544,1142.1829,569.37,1134.7973" style="stroke:#000000;stroke-width:1.0;"/></g><!--link User to UC15--><g id="link_User_UC15"><path d="M134.96,1019.4973 C140.45,1121.0973 157.55,1387.6373 187,1413.4473 C295.17,1508.2373 396.08,1462.7773 508,1372.4473 C562.33,1328.5973 601.6078,1261.0837 620.4378,1224.7737 " fill="none" id="User-to-UC15" style="stroke:#000000;stroke-width:1.0;"/><polygon fill="#000000" points="623.2,1219.4473,615.5058,1225.5954,620.8982,1223.8859,622.6076,1229.2783,623.2,1219.4473" style="stroke:#000000;stroke-width:1.0;"/></g><!--link User to UC16--><g id="link_User_UC16"><path d="M133.97,1019.5073 C136.73,1093.4773 147.23,1249.5773 187,1282.4473 C298.34,1374.4873 422.32,1347.7573 508,1231.4473 C548.58,1176.3573 493.95,1132.7973 538,1080.4473 C546.74,1070.0573 553.234,1064.9382 565.804,1059.5582 " fill="none" id="User-to-UC16" style="stroke:#000000;stroke-width:1.0;"/><polygon fill="#000000" points="571.32,1057.1973,561.4721,1057.0613,566.7233,1059.1647,564.6199,1064.4159,571.32,1057.1973" style="stroke:#000000;stroke-width:1.0;"/></g><!--link Admin to UC17--><g id="link_Admin_UC17"><path d="M55.31,457.2173 C93.07,462.1073 167.4999,471.765 228.2099,479.645 " fill="none" id="Admin-to-UC17" style="stroke:#000000;stroke-width:1.0;"/><polygon fill="#000000" points="234.16,480.4173,225.7497,475.2921,229.2016,479.7737,224.72,483.2256,234.16,480.4173" style="stroke:#000000;stroke-width:1.0;"/></g><!--link Admin to UC18--><g id="link_Admin_UC18"><path d="M55.14,435.0673 C63.89,427.8173 74.45,420.0073 85,414.4473 C135.08,388.0873 190.8689,371.261 237.1889,360.031 " fill="none" id="Admin-to-UC18" style="stroke:#000000;stroke-width:1.0;"/><polygon fill="#000000" points="243.02,358.6173,233.3309,356.8505,238.1608,359.7954,235.2159,364.6253,243.02,358.6173" style="stroke:#000000;stroke-width:1.0;"/></g><!--link Admin to UC19--><g id="link_Admin_UC19"><path d="M55.16,447.7873 C64.26,445.1473 75.07,442.2973 85,440.4473 C137.16,430.7073 190.9166,425.3038 235.9466,421.9438 " fill="none" id="Admin-to-UC19" style="stroke:#000000;stroke-width:1.0;"/><polygon fill="#000000" points="241.93,421.4973,232.6573,418.1781,236.9439,421.8694,233.2526,426.1559,241.93,421.4973" style="stroke:#000000;stroke-width:1.0;"/></g><!--link Admin to User--><g id="link_Admin_User"><path d="M41.21,493.5573 C59.19,591.0473 102.5859,826.3457 120.5459,923.7457 " fill="none" id="Admin-to-User" style="stroke:#000000;stroke-width:1.0;"/><polygon fill="none" points="123.81,941.4473,126.4465,922.6577,114.6454,924.8338,123.81,941.4473" style="stroke:#000000;stroke-width:1.0;"/></g><!--link UC10 to UC11--><g id="link_UC10_UC11"><path d="M672.11,938.3373 C732.36,908.1173 847.7066,850.267 911.6566,818.197 " fill="none" id="UC10-to-UC11" style="stroke:#000000;stroke-width:1.0;stroke-dasharray:7.0,7.0;"/><polygon fill="#000000" points="917.02,815.5073,907.1818,815.9662,912.5505,817.7487,910.768,823.1174,917.02,815.5073" style="stroke:#000000;stroke-width:1.0;"/><text fill="#000000" font-family="Verdana" font-size="13" lengthAdjust="spacing" textLength="62" x="763" y="863.5171">&#171;include&#187;</text></g><!--link UC10 to UC12--><g id="link_UC10_UC12"><path d="M719.6,951.5273 C762.31,949.0173 808.5904,946.3003 853.3804,943.6603 " fill="none" id="UC10-to-UC12" style="stroke:#000000;stroke-width:1.0;stroke-dasharray:7.0,7.0;"/><polygon fill="#000000" points="859.37,943.3073,850.1502,939.8438,854.3787,943.6015,850.621,947.8299,859.37,943.3073" style="stroke:#000000;stroke-width:1.0;"/><text fill="#000000" font-family="Verdana" font-size="13" lengthAdjust="spacing" textLength="62" x="763" y="943.5171">&#171;include&#187;</text></g><!--link UC6 to UC14--><g id="link_UC6_UC14"><path d="M366.07,1063.4373 C420.58,1074.8373 500.1769,1091.4698 559.8869,1103.9498 " fill="none" id="UC6-to-UC14" style="stroke:#000000;stroke-width:1.0;stroke-dasharray:7.0,7.0;"/><polygon fill="#000000" points="565.76,1105.1773,557.7687,1099.4206,560.8658,1104.1544,556.132,1107.2514,565.76,1105.1773" style="stroke:#000000;stroke-width:1.0;"/><text fill="#000000" font-family="Verdana" font-size="13" lengthAdjust="spacing" textLength="62" x="445" y="1077.5171">&#171;include&#187;</text></g><!--link UC6 to UC15--><g id="link_UC6_UC15"><path d="M363.15,1064.1273 C380.07,1069.4073 398.59,1076.6973 414,1086.4473 C430.2,1096.6973 428.2,1106.5873 444,1117.4473 C481.42,1143.1573 496.16,1139.8273 538,1157.4473 C554.14,1164.2473 566.29,1169.3334 582.04,1175.8834 " fill="none" id="UC6-to-UC15" style="stroke:#000000;stroke-width:1.0;stroke-dasharray:7.0,7.0;"/><polygon fill="#000000" points="587.58,1178.1873,580.8059,1171.038,582.9633,1176.2674,577.734,1178.4247,587.58,1178.1873" style="stroke:#000000;stroke-width:1.0;"/><text fill="#000000" font-family="Verdana" font-size="13" lengthAdjust="spacing" textLength="62" x="445" y="1114.5171">&#171;include&#187;</text></g><!--link UC6 to UC16--><g id="link_UC6_UC16"><path d="M383.84,1050.4773 C432.11,1049.1173 490.4924,1047.4755 541.8524,1046.0355 " fill="none" id="UC6-to-UC16" style="stroke:#000000;stroke-width:1.0;stroke-dasharray:7.0,7.0;"/><polygon fill="#000000" points="547.85,1045.8673,538.7414,1042.1211,542.852,1046.0074,538.9656,1050.118,547.85,1045.8673" style="stroke:#000000;stroke-width:1.0;"/><text fill="#000000" font-family="Verdana" font-size="13" lengthAdjust="spacing" textLength="62" x="445" y="1044.5171">&#171;include&#187;</text></g><!--link UC8 to UC10--><g id="link_UC8_UC10"><path d="M397.29,974.1773 C445.05,970.5973 498.6568,966.5862 546.1068,963.0262 " fill="none" id="UC8-to-UC10" style="stroke:#000000;stroke-width:1.0;stroke-dasharray:7.0,7.0;"/><polygon fill="#000000" points="552.09,962.5773,542.816,959.2619,547.104,962.9514,543.4145,967.2394,552.09,962.5773" style="stroke:#000000;stroke-width:1.0;"/><text fill="#000000" font-family="Verdana" font-size="13" lengthAdjust="spacing" textLength="61" x="445.5" y="963.5171">&#171;extend&#187;</text></g><!--link UC13 to UC10--><g id="link_UC13_UC10"><path d="M375.41,575.8973 C389.79,581.2173 403.84,589.0173 414,600.4473 C453.4,644.7573 417.52,677.3973 444,730.4473 C487.72,818.0473 567.5311,896.7005 607.4911,933.0405 " fill="none" id="UC13-to-UC10" style="stroke:#000000;stroke-width:1.0;stroke-dasharray:7.0,7.0;"/><polygon fill="#000000" points="611.93,937.0773,607.9628,928.0628,608.2309,933.7133,602.5804,933.9814,611.93,937.0773" style="stroke:#000000;stroke-width:1.0;"/><text fill="#000000" font-family="Verdana" font-size="13" lengthAdjust="spacing" textLength="61" x="445.5" y="727.5171">&#171;extend&#187;</text></g><!--link UC10 to API--><g id="link_UC10_API"><path d="M677.78,973.8973 C761.04,1005.8073 951.39,1064.1473 1088,994.4473 C1153.9,960.8273 1194.4277,887.2054 1215.4177,839.1654 " fill="none" id="UC10-to-API" style="stroke:#000000;stroke-width:1.0;"/><polygon fill="#000000" points="1217.82,833.6673,1210.5512,840.3129,1215.8181,838.2491,1217.882,843.516,1217.82,833.6673" style="stroke:#000000;stroke-width:1.0;"/><text fill="#000000" font-family="Verdana" font-size="13" lengthAdjust="spacing" textLength="46" x="937" y="991.5171">&#171;uses&#187;</text></g><!--link UC11 to API--><g id="link_UC11_API"><path d="M1064.22,794.4473 C1101.34,794.4473 1135.93,794.4473 1167.99,794.4473 " fill="none" id="UC11-to-API" style="stroke:#000000;stroke-width:1.0;"/><polygon fill="#000000" points="1173.99,794.4473,1164.99,790.4473,1168.99,794.4473,1164.99,798.4473,1173.99,794.4473" style="stroke:#000000;stroke-width:1.0;"/><text fill="#000000" font-family="Verdana" font-size="13" lengthAdjust="spacing" textLength="46" x="1097" y="791.5171">&#171;uses&#187;</text></g><!--link UC13 to API--><g id="link_UC13_API"><path d="M370.04,577.5073 C498.17,607.2573 820.31,682.9673 1088,753.4473 C1116.33,760.9073 1141.8622,768.0343 1168.1022,775.5543 " fill="none" id="UC13-to-API" style="stroke:#000000;stroke-width:1.0;"/><polygon fill="#000000" points="1173.87,777.2073,1166.3203,770.8826,1169.0635,775.8298,1164.1163,778.5731,1173.87,777.2073" style="stroke:#000000;stroke-width:1.0;"/><text fill="#000000" font-family="Verdana" font-size="13" lengthAdjust="spacing" textLength="46" x="771" y="670.5171">&#171;uses&#187;</text></g><!--SRC=[TLHTRzem57tthxZZfTi3LLCeXQb2YkYsHbfN1EhUhSG42yT6jiF6rltt-IEEx08yHDnxphttt8_aWzwIXi2UOSeH8niDMe2azLP3HIKfDHKSgHtbUonn0tjSxd1Drlh825WOyveHX3JLnl6oAbv-mFgeD6bW2A-Am0ARnoF5jOb629TQI1WOG0u0AykGmPbN3UNEw_u5zrgBSWVFMEw8XdnPUCQoGAWl3uEuy03-8Z0_zxY2l3KTSarBx5gnpeyhKbD3bP2NfMYv_kIqB3AFVXSrvPthjdU9Dj16tlUwhx0ci9HYGndfi75SUYcatWX6XP7FpTGQeyF7BYHniO7GHTzvz2SblqwmYSSU2IDd8kyzcbSL-84z2LPHNgiEduR66t4WvocpMBfdv1opewAgIswjFo5wHTKkpEt64xxP3HMm8gLeJA-LctZWP55lQxiGEus-Gc1ryrw8njnRLwe7H-U7cwfq1NAbh1R6H9c867VfCIjRPZVmH33JMrYNGeOLPl4M7kc1I4KtDCqpIIxCdYjyRRbxMM8PzhnD3oPKcGFi- -YMzImujIUUcxW3rKSmLzPpkeNvmt69UcY6_Y5qvPDBmfmmjQLxXPnhE9oxMuwCszWOnSOuDkvYOn8Rzx4nZOrPKlGciH8DMI8YIrHaYOmiqM5cZSACqswzhsFTf-OqDMUz-JRt7nsJi-0bQoloVeQc2xY-zWt0PtXue9utdoVOxGas2T3uCdHt6PgyWup2Bx-rUOrE14v3o8qB8OxbvOqkG7Q4o-9SgtP25hBqLX7bysGN_ADp_ly0]--></g></svg>