<?xml version="1.0" encoding="us-ascii" standalone="no"?><svg xmlns="http://www.w3.org/2000/svg" xmlns:xlink="http://www.w3.org/1999/xlink" contentStyleType="text/css" height="779px" preserveAspectRatio="none" style="width:943px;height:779px;background:#FFFFFF;" version="1.1" viewBox="0 0 943 779" width="943px" zoomAndPan="magnify"><defs/><g><text fill="#000000" font-family="Verdana" font-size="22" font-weight="bold" lengthAdjust="spacing" textLength="390" x="272" y="37.1182">ORION System - Class Diagram</text><!--class User--><g id="elem_User"><rect codeLine="7" fill="#FFFFFF" height="180.1172" id="User" rx="2.5" ry="2.5" style="stroke:#000000;stroke-width:1.0;" width="216" x="12" y="197.7373"/><ellipse cx="100.25" cy="211.7373" fill="#FFFFFF" rx="9" ry="9" style="stroke:#000000;stroke-width:1.0;"/><path d="M103.0156,213.2686 L105.4063,214.0186 Q104.8594,216.0029 103.5781,216.9717 Q102.3125,217.9404 100.3438,217.9404 Q97.9219,217.9404 96.3594,216.2842 Q94.8125,214.6279 94.8125,211.7529 Q94.8125,208.7217 96.375,207.0498 Q97.9375,205.3623 100.5,205.3623 Q102.7344,205.3623 104.125,206.6748 Q104.9531,207.4561 105.375,208.9248 L102.9375,209.5029 Q102.7188,208.5498 102.0313,208.0029 Q101.3594,207.4561 100.375,207.4561 Q99.0156,207.4561 98.1719,208.4404 Q97.3438,209.4092 97.3438,211.5811 Q97.3438,213.8779 98.1719,214.8623 Q99,215.8467 100.3281,215.8467 Q101.3125,215.8467 102.0156,215.2217 Q102.7188,214.5967 103.0156,213.2686 Z " fill="#000000"/><text fill="#000000" font-family="Verdana" font-size="14" lengthAdjust="spacing" textLength="32" x="117.75" y="217.3052">User</text><line style="stroke:#000000;stroke-width:1.0;" x1="13" x2="227" y1="225.7373" y2="225.7373"/><text fill="#000000" font-family="Verdana" font-size="14" lengthAdjust="spacing" textLength="48" x="18" y="243.8125">-id: int</text><text fill="#000000" font-family="Verdana" font-size="14" lengthAdjust="spacing" textLength="128" x="18" y="260.8271">-username: string</text><text fill="#000000" font-family="Verdana" font-size="14" lengthAdjust="spacing" textLength="94" x="18" y="277.8418">-email: string</text><text fill="#000000" font-family="Verdana" font-size="14" lengthAdjust="spacing" textLength="170" x="18" y="294.8564">-password_hash: string</text><text fill="#000000" font-family="Verdana" font-size="14" lengthAdjust="spacing" textLength="136" x="18" y="311.8711">-risk_profile: string</text><text fill="#000000" font-family="Verdana" font-size="14" lengthAdjust="spacing" textLength="135" x="18" y="328.8857">-is_admin: boolean</text><line style="stroke:#000000;stroke-width:1.0;" x1="13" x2="227" y1="335.8252" y2="335.8252"/><text fill="#000000" font-family="Verdana" font-size="14" lengthAdjust="spacing" textLength="204" x="18" y="353.9004">+verify_password(): boolean</text><text fill="#000000" font-family="Verdana" font-size="14" lengthAdjust="spacing" textLength="153" x="18" y="370.915">+get_portfolios(): list</text></g><!--class Portfolio--><g id="elem_Portfolio"><rect codeLine="18" fill="#FFFFFF" height="129.0732" id="Portfolio" rx="2.5" ry="2.5" style="stroke:#000000;stroke-width:1.0;" width="235" x="63.5" y="437.7373"/><ellipse cx="148.25" cy="451.7373" fill="#FFFFFF" rx="9" ry="9" style="stroke:#000000;stroke-width:1.0;"/><path d="M151.0156,453.2686 L153.4063,454.0186 Q152.8594,456.0029 151.5781,456.9717 Q150.3125,457.9404 148.3438,457.9404 Q145.9219,457.9404 144.3594,456.2842 Q142.8125,454.6279 142.8125,451.7529 Q142.8125,448.7217 144.375,447.0498 Q145.9375,445.3623 148.5,445.3623 Q150.7344,445.3623 152.125,446.6748 Q152.9531,447.4561 153.375,448.9248 L150.9375,449.5029 Q150.7188,448.5498 150.0313,448.0029 Q149.3594,447.4561 148.375,447.4561 Q147.0156,447.4561 146.1719,448.4404 Q145.3438,449.4092 145.3438,451.5811 Q145.3438,453.8779 146.1719,454.8623 Q147,455.8467 148.3281,455.8467 Q149.3125,455.8467 150.0156,455.2217 Q150.7188,454.5967 151.0156,453.2686 Z " fill="#000000"/><text fill="#000000" font-family="Verdana" font-size="14" lengthAdjust="spacing" textLength="58" x="165.75" y="457.3052">Portfolio</text><line style="stroke:#000000;stroke-width:1.0;" x1="64.5" x2="297.5" y1="465.7373" y2="465.7373"/><text fill="#000000" font-family="Verdana" font-size="14" lengthAdjust="spacing" textLength="48" x="69.5" y="483.8125">-id: int</text><text fill="#000000" font-family="Verdana" font-size="14" lengthAdjust="spacing" textLength="88" x="69.5" y="500.8271">-user_id: int</text><text fill="#000000" font-family="Verdana" font-size="14" lengthAdjust="spacing" textLength="97" x="69.5" y="517.8418">-name: string</text><line style="stroke:#000000;stroke-width:1.0;" x1="64.5" x2="297.5" y1="524.7813" y2="524.7813"/><text fill="#000000" font-family="Verdana" font-size="14" lengthAdjust="spacing" textLength="145" x="69.5" y="542.8564">+get_holdings(): list</text><text fill="#000000" font-family="Verdana" font-size="14" lengthAdjust="spacing" textLength="223" x="69.5" y="559.8711">+calculate_health_score(): float</text></g><!--class Holding--><g id="elem_Holding"><rect codeLine="26" fill="#FFFFFF" height="146.0879" id="Holding" rx="2.5" ry="2.5" style="stroke:#000000;stroke-width:1.0;" width="182" x="175" y="626.7373"/><ellipse cx="236.25" cy="640.7373" fill="#FFFFFF" rx="9" ry="9" style="stroke:#000000;stroke-width:1.0;"/><path d="M239.0156,642.2686 L241.4063,643.0186 Q240.8594,645.0029 239.5781,645.9717 Q238.3125,646.9404 236.3438,646.9404 Q233.9219,646.9404 232.3594,645.2842 Q230.8125,643.6279 230.8125,640.7529 Q230.8125,637.7217 232.375,636.0498 Q233.9375,634.3623 236.5,634.3623 Q238.7344,634.3623 240.125,635.6748 Q240.9531,636.4561 241.375,637.9248 L238.9375,638.5029 Q238.7188,637.5498 238.0313,637.0029 Q237.3594,636.4561 236.375,636.4561 Q235.0156,636.4561 234.1719,637.4404 Q233.3438,638.4092 233.3438,640.5811 Q233.3438,642.8779 234.1719,643.8623 Q235,644.8467 236.3281,644.8467 Q237.3125,644.8467 238.0156,644.2217 Q238.7188,643.5967 239.0156,642.2686 Z " fill="#000000"/><text fill="#000000" font-family="Verdana" font-size="14" lengthAdjust="spacing" textLength="52" x="253.75" y="646.3052">Holding</text><line style="stroke:#000000;stroke-width:1.0;" x1="176" x2="356" y1="654.7373" y2="654.7373"/><text fill="#000000" font-family="Verdana" font-size="14" lengthAdjust="spacing" textLength="48" x="181" y="672.8125">-id: int</text><text fill="#000000" font-family="Verdana" font-size="14" lengthAdjust="spacing" textLength="116" x="181" y="689.8271">-portfolio_id: int</text><text fill="#000000" font-family="Verdana" font-size="14" lengthAdjust="spacing" textLength="109" x="181" y="706.8418">-symbol: string</text><text fill="#000000" font-family="Verdana" font-size="14" lengthAdjust="spacing" textLength="107" x="181" y="723.8564">-quantity: float</text><text fill="#000000" font-family="Verdana" font-size="14" lengthAdjust="spacing" textLength="155" x="181" y="740.8711">-purchase_price: float</text><line style="stroke:#000000;stroke-width:1.0;" x1="176" x2="356" y1="747.8105" y2="747.8105"/><text fill="#000000" font-family="Verdana" font-size="14" lengthAdjust="spacing" textLength="170" x="181" y="765.8857">+calculate_gains(): float</text></g><!--class DataFetcher--><g id="elem_DataFetcher"><rect codeLine="36" fill="#FFFFFF" height="78.0293" id="DataFetcher" rx="2.5" ry="2.5" style="stroke:#000000;stroke-width:1.0;" width="244" x="423" y="248.7373"/><ellipse cx="498.75" cy="262.7373" fill="#FFFFFF" rx="9" ry="9" style="stroke:#000000;stroke-width:1.0;"/><path d="M501.5156,264.2686 L503.9063,265.0186 Q503.3594,267.0029 502.0781,267.9717 Q500.8125,268.9404 498.8438,268.9404 Q496.4219,268.9404 494.8594,267.2842 Q493.3125,265.6279 493.3125,262.7529 Q493.3125,259.7217 494.875,258.0498 Q496.4375,256.3623 499,256.3623 Q501.2344,256.3623 502.625,257.6748 Q503.4531,258.4561 503.875,259.9248 L501.4375,260.5029 Q501.2188,259.5498 500.5313,259.0029 Q499.8594,258.4561 498.875,258.4561 Q497.5156,258.4561 496.6719,259.4404 Q495.8438,260.4092 495.8438,262.5811 Q495.8438,264.8779 496.6719,265.8623 Q497.5,266.8467 498.8281,266.8467 Q499.8125,266.8467 500.5156,266.2217 Q501.2188,265.5967 501.5156,264.2686 Z " fill="#000000"/><text fill="#000000" font-family="Verdana" font-size="14" lengthAdjust="spacing" textLength="85" x="516.25" y="268.3052">DataFetcher</text><line style="stroke:#000000;stroke-width:1.0;" x1="424" x2="666" y1="276.7373" y2="276.7373"/><line style="stroke:#000000;stroke-width:1.0;" x1="424" x2="666" y1="284.7373" y2="284.7373"/><text fill="#000000" font-family="Verdana" font-size="14" lengthAdjust="spacing" textLength="232" x="429" y="302.8125">+fetch_stock_data(): DataFrame</text><text fill="#000000" font-family="Verdana" font-size="14" lengthAdjust="spacing" textLength="190" x="429" y="319.8271">+get_current_price(): float</text></g><!--class RiskCalculator--><g id="elem_RiskCalculator"><rect codeLine="41" fill="#FFFFFF" height="95.0439" id="RiskCalculator" rx="2.5" ry="2.5" style="stroke:#000000;stroke-width:1.0;" width="234" x="702" y="240.2373"/><ellipse cx="766.25" cy="254.2373" fill="#FFFFFF" rx="9" ry="9" style="stroke:#000000;stroke-width:1.0;"/><path d="M769.0156,255.7686 L771.4063,256.5186 Q770.8594,258.5029 769.5781,259.4717 Q768.3125,260.4404 766.3438,260.4404 Q763.9219,260.4404 762.3594,258.7842 Q760.8125,257.1279 760.8125,254.2529 Q760.8125,251.2217 762.375,249.5498 Q763.9375,247.8623 766.5,247.8623 Q768.7344,247.8623 770.125,249.1748 Q770.9531,249.9561 771.375,251.4248 L768.9375,252.0029 Q768.7188,251.0498 768.0313,250.5029 Q767.3594,249.9561 766.375,249.9561 Q765.0156,249.9561 764.1719,250.9404 Q763.3438,251.9092 763.3438,254.0811 Q763.3438,256.3779 764.1719,257.3623 Q765,258.3467 766.3281,258.3467 Q767.3125,258.3467 768.0156,257.7217 Q768.7188,257.0967 769.0156,255.7686 Z " fill="#000000"/><text fill="#000000" font-family="Verdana" font-size="14" lengthAdjust="spacing" textLength="98" x="783.75" y="259.8052">RiskCalculator</text><line style="stroke:#000000;stroke-width:1.0;" x1="703" x2="935" y1="268.2373" y2="268.2373"/><line style="stroke:#000000;stroke-width:1.0;" x1="703" x2="935" y1="276.2373" y2="276.2373"/><text fill="#000000" font-family="Verdana" font-size="14" lengthAdjust="spacing" textLength="190" x="708" y="294.3125">+calculate_volatility(): float</text><text fill="#000000" font-family="Verdana" font-size="14" lengthAdjust="spacing" textLength="222" x="708" y="311.3271">+calculate_sharpe_ratio(): float</text><text fill="#000000" font-family="Verdana" font-size="14" lengthAdjust="spacing" textLength="155" x="708" y="328.3418">+calculate_var(): float</text></g><!--class AIEngine--><g id="elem_AIEngine"><rect codeLine="47" fill="#FFFFFF" height="78.0293" id="AIEngine" rx="2.5" ry="2.5" style="stroke:#000000;stroke-width:1.0;" width="259" x="432.5" y="59.7373"/><ellipse cx="527.25" cy="73.7373" fill="#FFFFFF" rx="9" ry="9" style="stroke:#000000;stroke-width:1.0;"/><path d="M530.0156,75.2686 L532.4063,76.0186 Q531.8594,78.0029 530.5781,78.9717 Q529.3125,79.9404 527.3438,79.9404 Q524.9219,79.9404 523.3594,78.2842 Q521.8125,76.6279 521.8125,73.7529 Q521.8125,70.7217 523.375,69.0498 Q524.9375,67.3623 527.5,67.3623 Q529.7344,67.3623 531.125,68.6748 Q531.9531,69.4561 532.375,70.9248 L529.9375,71.5029 Q529.7188,70.5498 529.0313,70.0029 Q528.3594,69.4561 527.375,69.4561 Q526.0156,69.4561 525.1719,70.4404 Q524.3438,71.4092 524.3438,73.5811 Q524.3438,75.8779 525.1719,76.8623 Q526,77.8467 527.3281,77.8467 Q528.3125,77.8467 529.0156,77.2217 Q529.7188,76.5967 530.0156,75.2686 Z " fill="#000000"/><text fill="#000000" font-family="Verdana" font-size="14" lengthAdjust="spacing" textLength="62" x="544.75" y="79.3052">AIEngine</text><line style="stroke:#000000;stroke-width:1.0;" x1="433.5" x2="690.5" y1="87.7373" y2="87.7373"/><line style="stroke:#000000;stroke-width:1.0;" x1="433.5" x2="690.5" y1="95.7373" y2="95.7373"/><text fill="#000000" font-family="Verdana" font-size="14" lengthAdjust="spacing" textLength="158" x="438.5" y="113.8125">+analyze_stock(): dict</text><text fill="#000000" font-family="Verdana" font-size="14" lengthAdjust="spacing" textLength="247" x="438.5" y="130.8271">+generate_recommendation(): dict</text></g><!--class SentimentAnalysis--><g id="elem_SentimentAnalysis"><rect codeLine="52" fill="#FFFFFF" height="61.0146" id="SentimentAnalysis" rx="2.5" ry="2.5" style="stroke:#000000;stroke-width:1.0;" width="202" x="727" y="68.2373"/><ellipse cx="760.25" cy="82.2373" fill="#FFFFFF" rx="9" ry="9" style="stroke:#000000;stroke-width:1.0;"/><path d="M763.0156,83.7686 L765.4063,84.5186 Q764.8594,86.5029 763.5781,87.4717 Q762.3125,88.4404 760.3438,88.4404 Q757.9219,88.4404 756.3594,86.7842 Q754.8125,85.1279 754.8125,82.2529 Q754.8125,79.2217 756.375,77.5498 Q757.9375,75.8623 760.5,75.8623 Q762.7344,75.8623 764.125,77.1748 Q764.9531,77.9561 765.375,79.4248 L762.9375,80.0029 Q762.7188,79.0498 762.0313,78.5029 Q761.3594,77.9561 760.375,77.9561 Q759.0156,77.9561 758.1719,78.9404 Q757.3438,79.9092 757.3438,82.0811 Q757.3438,84.3779 758.1719,85.3623 Q759,86.3467 760.3281,86.3467 Q761.3125,86.3467 762.0156,85.7217 Q762.7188,85.0967 763.0156,83.7686 Z " fill="#000000"/><text fill="#000000" font-family="Verdana" font-size="14" lengthAdjust="spacing" textLength="129" x="776.75" y="87.8052">SentimentAnalysis</text><line style="stroke:#000000;stroke-width:1.0;" x1="728" x2="928" y1="96.2373" y2="96.2373"/><line style="stroke:#000000;stroke-width:1.0;" x1="728" x2="928" y1="104.2373" y2="104.2373"/><text fill="#000000" font-family="Verdana" font-size="14" lengthAdjust="spacing" textLength="190" x="733" y="122.3125">+analyze_sentiment(): dict</text></g><!--class Database--><g id="elem_Database"><rect codeLine="56" fill="#FFFFFF" height="78.0293" id="Database" rx="2.5" ry="2.5" style="stroke:#000000;stroke-width:1.0;" width="233" x="164.5" y="59.7373"/><ellipse cx="244.25" cy="73.7373" fill="#FFFFFF" rx="9" ry="9" style="stroke:#000000;stroke-width:1.0;"/><path d="M247.0156,75.2686 L249.4063,76.0186 Q248.8594,78.0029 247.5781,78.9717 Q246.3125,79.9404 244.3438,79.9404 Q241.9219,79.9404 240.3594,78.2842 Q238.8125,76.6279 238.8125,73.7529 Q238.8125,70.7217 240.375,69.0498 Q241.9375,67.3623 244.5,67.3623 Q246.7344,67.3623 248.125,68.6748 Q248.9531,69.4561 249.375,70.9248 L246.9375,71.5029 Q246.7188,70.5498 246.0313,70.0029 Q245.3594,69.4561 244.375,69.4561 Q243.0156,69.4561 242.1719,70.4404 Q241.3438,71.4092 241.3438,73.5811 Q241.3438,75.8779 242.1719,76.8623 Q243,77.8467 244.3281,77.8467 Q245.3125,77.8467 246.0156,77.2217 Q246.7188,76.5967 247.0156,75.2686 Z " fill="#000000"/><text fill="#000000" font-family="Verdana" font-size="14" lengthAdjust="spacing" textLength="66" x="261.75" y="79.3052">Database</text><line style="stroke:#000000;stroke-width:1.0;" x1="165.5" x2="396.5" y1="87.7373" y2="87.7373"/><text fill="#000000" font-family="Verdana" font-size="14" lengthAdjust="spacing" textLength="221" x="170.5" y="105.8125">-connection: MySQLConnection</text><line style="stroke:#000000;stroke-width:1.0;" x1="165.5" x2="396.5" y1="112.752" y2="112.752"/><text fill="#000000" font-family="Verdana" font-size="14" lengthAdjust="spacing" textLength="178" x="170.5" y="130.8271">+execute_query(): result</text></g><!--link User to Portfolio--><g id="link_User_Portfolio"><path codeLine="62" d="M145.6,377.9373 C151.34,397.9273 157.32,418.7373 162.69,437.4573 " fill="none" id="User-Portfolio" style="stroke:#000000;stroke-width:1.0;"/><text fill="#000000" font-family="Verdana" font-size="13" lengthAdjust="spacing" textLength="8" x="139.3213" y="398.8198">1</text><text fill="#000000" font-family="Verdana" font-size="13" lengthAdjust="spacing" textLength="9" x="151.0526" y="427.2117">*</text></g><!--link Portfolio to Holding--><g id="link_Portfolio_Holding"><path codeLine="63" d="M208.71,566.9773 C217,586.0373 226.14,607.0573 234.64,626.6073 " fill="none" id="Portfolio-Holding" style="stroke:#000000;stroke-width:1.0;"/><text fill="#000000" font-family="Verdana" font-size="13" lengthAdjust="spacing" textLength="8" x="203.3033" y="587.9881">1</text><text fill="#000000" font-family="Verdana" font-size="13" lengthAdjust="spacing" textLength="9" x="221.7178" y="615.8971">*</text></g><!--link AIEngine to DataFetcher--><g id="link_AIEngine_DataFetcher"><path codeLine="64" d="M558.52,138.0273 C555.59,170.2973 551.9527,210.2619 549.0227,242.5219 " fill="none" id="AIEngine-to-DataFetcher" style="stroke:#000000;stroke-width:1.0;stroke-dasharray:7.0,7.0;"/><polygon fill="#000000" points="548.48,248.4973,553.2777,239.896,548.9323,243.5178,545.3105,239.1724,548.48,248.4973" style="stroke:#000000;stroke-width:1.0;"/></g><!--link AIEngine to RiskCalculator--><g id="link_AIEngine_RiskCalculator"><path codeLine="65" d="M614.32,137.8073 C654.97,167.3873 706.6986,205.0169 750.0686,236.5769 " fill="none" id="AIEngine-to-RiskCalculator" style="stroke:#000000;stroke-width:1.0;stroke-dasharray:7.0,7.0;"/><polygon fill="#000000" points="754.92,240.1073,749.9964,231.5775,750.8771,237.1653,745.2893,238.0461,754.92,240.1073" style="stroke:#000000;stroke-width:1.0;"/></g><!--reverse link Database to User--><g id="link_Database_User"><path codeLine="66" d="M244.1157,142.5747 C229.2157,159.8847 214.84,176.5873 196.8,197.5373 " fill="none" id="Database-backto-User" style="stroke:#000000;stroke-width:1.0;stroke-dasharray:7.0,7.0;"/><polygon fill="#000000" points="248.03,138.0273,239.127,142.2389,244.7681,141.8168,245.1902,147.4579,248.03,138.0273" style="stroke:#000000;stroke-width:1.0;"/></g><!--reverse link Database to Portfolio--><g id="link_Database_Portfolio"><path codeLine="67" d="M280.0175,143.9532 C277.9975,198.3832 270.96,294.8373 245,377.7373 C238.65,398.0173 229.1,418.9473 219.31,437.6873 " fill="none" id="Database-backto-Portfolio" style="stroke:#000000;stroke-width:1.0;stroke-dasharray:7.0,7.0;"/><polygon fill="#000000" points="280.24,137.9573,275.909,146.8028,280.0546,142.9539,283.9035,147.0995,280.24,137.9573" style="stroke:#000000;stroke-width:1.0;"/></g><!--reverse link Database to Holding--><g id="link_Database_Holding"><path codeLine="68" d="M291.7236,143.7672 C309.9936,223.9072 344.8,409.3873 316,566.7373 C312.36,586.6273 305.87,607.3973 298.75,626.4273 " fill="none" id="Database-backto-Holding" style="stroke:#000000;stroke-width:1.0;stroke-dasharray:7.0,7.0;"/><polygon fill="#000000" points="290.39,137.9173,288.4905,147.5813,291.5014,142.7922,296.2904,145.8031,290.39,137.9173" style="stroke:#000000;stroke-width:1.0;"/></g><!--SRC=[VLHDZzCm4BtxLmozBB1g1TSA8LLT49LO5bfnjbndsepgs5dRAMGH_vr9ck_kaakKUJDltdpbLKmnGyYD8Yl2YMoklCf06nN2AaPF-oBYHZkxeoU4Tq94YWRXORjv-0QxCaJCO0xhoXtkI1qvM8WRM3kFSEyID47KNF0pe8S_0lYP0oLB81kRhu8Xgp9SGk24zjYOCLDa9hQSgNuvdyXKXNI2UGedcNjt83EbeY1Laf5TmjuvWyhMzbiuewT3ALlMrs-c3aUCCdS-7fmX5ohSK8ZYhsYg-jvY_obDZarNbLwofCuaREbpN22jZ2wCYYXJL2QcCcXkRULqC4uDb7ovnB-WewjX8YQKsTvDc_nOACjZBjiS3KNXDNSTkSMaSOWDLHvvZy98tWtiq9yvfDs4EnNLPumwxHRY5WxLjmpHwPDC6AyOQZ_U9nnqIHVUeuqN3SzqOSixi6x4k9w-rtTs_2B3rVNHKv-GAf-ZzEpeNlOwA_-CWDNcapsInIwriigKJtYfhGf8ICUk8ek-ulAeNPQXJQgKjlFgM7TSCp4ULnLRe71DttfS1rTztFFWkjNWQxQegqnBk2ztFxwkEqF3YhzHyztBnm9ztIYFeJ3DEBTeQfaXfJo8-gvdxsSmdyFixQo_2D7VnW1krbHqVLeiFWutOWoCnocwIZui5lKFPMpfKu_CRSf_]--></g></svg>